<svg width="49" height="59" viewBox="0 0 49 59" fill="none" xmlns="http://www.w3.org/2000/svg">
<path d="M39.2795 52.808C31.1243 49.5264 28.4369 45.4511 29.1331 39.5796H20.1749C20.8712 45.4511 18.1837 49.5264 10.0286 52.808C1.87337 56.0895 0.777954 59.6728 0.777954 59.6728H48.5626C48.5626 59.6728 47.444 56.0895 39.2795 52.808Z" fill="#FF8482"/>
<path d="M24.599 49.1408C26.8857 49.1423 29.1373 48.5778 31.1528 47.4977C29.3473 45.2605 28.7764 42.6705 29.143 39.6071H20.1756C20.5423 42.7122 19.9621 45.3161 18.1287 47.5673C20.126 48.6086 22.3465 49.1486 24.599 49.1408Z" fill="#FF5B59"/>
<path d="M39.2801 52.8086C36.8954 51.925 34.6684 50.6634 32.6845 49.0722L25.1699 56.0345L16.6991 48.9747C15.0884 50.3672 12.8976 51.6343 10.0199 52.7901C1.86469 56.0716 0.769287 59.6549 0.769287 59.6549H48.5632C48.5632 59.6549 47.4446 56.0902 39.2801 52.8086Z" fill="#6F87ED"/>
<path d="M13.0697 28.9333C14.5689 31.8064 13.9423 35.1019 11.6773 36.2948C9.4122 37.4876 6.33021 36.123 4.82635 33.2499C3.32249 30.3768 3.95374 27.0767 6.21881 25.8838C8.48389 24.6909 11.5659 26.0462 13.0697 28.9333Z" fill="#FF8482"/>
<path d="M11.7465 34.4108C11.7465 34.2947 11.7186 34.1926 11.7047 34.0812C11.7202 34.1485 11.7311 34.2167 11.7372 34.2854C11.7393 33.7952 11.6561 33.3083 11.4912 32.8466C11.185 31.4789 10.4731 30.2355 9.44869 29.279C8.42428 28.3225 7.13506 27.6975 5.74963 27.4856C7.57426 28.5448 9.15567 29.976 10.3912 31.6862C8.75735 31.0224 6.21379 32.4335 6.21379 32.4335C9.21222 31.6351 10.5768 32.2942 11.2034 33.0601C11.4358 33.4879 11.6181 33.9411 11.7465 34.4108Z" fill="#FF5B59"/>
<path d="M36.1284 28.9333C34.6245 31.8064 35.2557 35.1019 37.5208 36.2948C39.7859 37.4876 42.8679 36.123 44.3717 33.2499C45.8756 30.3768 45.2443 27.0767 42.9793 25.8838C40.7142 24.6909 37.6322 26.0462 36.1284 28.9333Z" fill="#FF8482"/>
<path d="M37.4464 34.4108C37.4464 34.2947 37.4789 34.1926 37.4882 34.0812C37.4882 34.1648 37.4603 34.2297 37.4557 34.2854C37.4549 33.7949 37.5397 33.308 37.7063 32.8466C38.0132 31.4776 38.7264 30.2333 39.7526 29.2767C40.7788 28.32 42.0701 27.6957 43.4572 27.4856C41.6326 28.5448 40.0512 29.976 38.8157 31.6862C40.4541 31.0224 42.9931 32.4335 42.9931 32.4335C39.99 31.6351 38.6254 32.2942 37.9988 33.0601C37.7657 33.4887 37.5805 33.9417 37.4464 34.4108Z" fill="#FF5B59"/>
<path d="M42.4823 16.7213C44.3389 12.6692 46.5947 5.5073 37.4369 1.33455C37.5019 1.36704 33.5195 -1.98879 26.4411 4.11948C24.1853 6.10141 21.1591 6.96939 18.2906 6.02251C15.4221 5.07564 11.6625 5.1731 9.57378 10.367C9.06187 11.5444 8.83754 12.8268 8.91932 14.1081C8.25558 13.2772 7.35049 12.7156 6.50573 14.0616C5.82343 15.1153 6.38505 19.78 8.03744 23.9992C8.03744 23.9992 8.99823 34.1363 13.6073 35.7144L18.156 29.4762C21.9296 29.388 26.6268 29.2627 30.4932 29.1791L35.2601 35.7144C38.5602 34.5865 39.9944 29.1002 40.5468 26.0508L41.0852 25.452C43.211 23.1034 44.0186 19.845 42.7144 17.1529C42.6355 16.9997 42.5612 16.8651 42.4823 16.7213Z" fill="#420E2F"/>
<path d="M18.2906 6.01153C15.4314 5.06002 11.6625 5.17141 9.5506 10.3607C9.34065 10.8701 9.17449 11.3965 9.05396 11.9341L9.17464 12.2219C9.17464 12.2219 11.9688 5.68663 18.2906 6.01153Z" fill="#7C1A59"/>
<path d="M37.4231 1.33344C37.4742 1.33344 35.0699 -0.671709 30.6604 1.33344C31.5237 1.33344 42.5381 1.44483 43.9584 12.2411C44.6361 8.50926 43.7495 4.21119 37.4231 1.33344Z" fill="#7C1A59"/>
<path d="M20.3979 12.5657C17.8599 12.5656 15.4243 13.5667 13.6201 15.3518C11.816 17.1368 10.7889 19.5616 10.762 22.0994L10.6646 31.285C10.6646 39.6816 16.9028 46.4954 24.5892 46.4954C32.2756 46.4954 38.5138 39.6816 38.5138 31.285L38.4859 21.5378C38.4859 16.5806 35.2879 9.73901 30.3261 9.73901L20.3979 12.5657Z" fill="#FDB193"/>
<path opacity="0.39" d="M25.6979 39.9639C25.6979 39.9639 28.195 40.0382 29.0862 38.0516C29.0862 38.0516 29.7964 39.4998 28.0929 40.3724C26.3895 41.245 25.6979 39.9639 25.6979 39.9639Z" fill="#FF8282"/>
<g style="mix-blend-mode:multiply" opacity="0.55">
<path d="M38.5002 21.5378C38.5002 16.5806 35.3022 9.73901 30.3404 9.73901L20.3982 12.5657C17.8602 12.5656 15.4247 13.5667 13.6205 15.3518C11.8163 17.1368 10.7893 19.5616 10.7624 22.0994L10.7159 26.4486L12.1084 24.0582C12.1084 24.0164 13.0738 19.9226 21.8974 19.8112C24.9794 19.7694 28.7298 18.8829 31.1805 15.3321C32.0577 17.9685 33.5245 20.3403 35.2697 21.7652C36.1963 22.5492 37.32 23.0645 38.5188 23.2552L38.5002 21.5378Z" fill="#FDB193"/>
</g>
<path d="M28.836 33.9333C29.0028 34.3882 29.0877 34.8691 29.0866 35.3537C29.1089 36.3437 28.7581 37.306 28.1037 38.0494C27.4494 38.7928 26.5394 39.2628 25.5545 39.3663C24.5696 39.4698 23.5818 39.199 22.7872 38.6079C21.9927 38.0167 21.4495 37.1483 21.2656 36.1752L28.836 33.9333Z" fill="#230F0B"/>
<path d="M25.1374 39.4058C24.4893 39.4099 23.8507 39.2503 23.2808 38.9417C23.494 38.0459 24.008 37.2503 24.737 36.6877C25.466 36.1252 26.3658 35.8296 27.2864 35.8504C27.8792 35.851 28.4655 35.9743 29.0084 36.2124C28.8282 37.1084 28.345 37.915 27.64 38.4966C26.935 39.0781 26.0513 39.3992 25.1374 39.4058Z" fill="#E8132C"/>
<path d="M26.5847 31.5129C26.5847 32.8311 25.6936 33.8987 24.5982 33.8987C23.5028 33.8987 22.6069 32.8311 22.6069 31.5129C22.6069 30.1947 23.4981 28.5424 24.5982 28.5424C25.6982 28.5424 26.5847 30.1947 26.5847 31.5129Z" fill="#FF6A68"/>
<path d="M31.7637 27.2766C31.7637 28.3674 31.397 29.2539 30.9375 29.2539C30.478 29.2539 30.1113 28.3674 30.1113 27.2766C30.1113 26.1858 30.4827 25.2947 30.9375 25.2947C31.3924 25.2947 31.7637 26.1812 31.7637 27.2766Z" fill="#25110D"/>
<path d="M34.8322 25.1084C34.939 25.048 30.3578 22.1517 27.5311 22.2584C27.4986 22.3049 27.5868 19.7288 31.3371 21.0795C34.9761 22.5741 34.7997 25.1501 34.8322 25.1084Z" fill="#420E2F"/>
<path d="M18.2522 29.2521C18.7085 29.2521 19.0784 28.3668 19.0784 27.2748C19.0784 26.1828 18.7085 25.2975 18.2522 25.2975C17.7959 25.2975 17.426 26.1828 17.426 27.2748C17.426 28.3668 17.7959 29.2521 18.2522 29.2521Z" fill="#25110D"/>
<path d="M13.9407 25.1084C13.8339 25.048 18.4151 22.1517 21.2418 22.2584C21.279 22.3049 21.1861 19.7288 17.4358 21.0795C13.8014 22.5741 13.9732 25.1501 13.9407 25.1084Z" fill="#420E2F"/>
<path d="M16.2704 33.9922C16.2161 33.9926 16.1623 33.9815 16.1126 33.9597C16.0251 33.9167 15.958 33.8409 15.9259 33.7489C15.8938 33.6568 15.8991 33.5558 15.9408 33.4677L17.0966 31.0773C17.1413 30.9938 17.2166 30.9308 17.3068 30.9016C17.3969 30.8724 17.4948 30.8793 17.58 30.9207C17.6653 30.9621 17.7311 31.0349 17.7639 31.1238C17.7966 31.2127 17.7937 31.3108 17.7557 31.3976L16.5999 33.788C16.57 33.8497 16.5231 33.9017 16.4648 33.9379C16.4064 33.9741 16.339 33.9929 16.2704 33.9922Z" fill="#FF6A68"/>
<path d="M13.9639 33.9922C13.9016 33.9932 13.8401 33.9782 13.7854 33.9485C13.7306 33.9188 13.6844 33.8755 13.6513 33.8228C13.6182 33.7701 13.5992 33.7097 13.5962 33.6475C13.5933 33.5853 13.6064 33.5233 13.6343 33.4677L14.7901 31.0773C14.8348 30.9938 14.9102 30.9308 15.0003 30.9016C15.0904 30.8724 15.1883 30.8793 15.2736 30.9207C15.3588 30.9621 15.4246 31.0349 15.4574 31.1238C15.4901 31.2127 15.4872 31.3108 15.4492 31.3976L14.2934 33.788C14.2631 33.8494 14.2161 33.9011 14.1579 33.9372C14.0996 33.9733 14.0324 33.9923 13.9639 33.9922Z" fill="#FF6A68"/>
<path d="M32.7019 33.9941C32.6334 33.9943 32.5662 33.9752 32.5079 33.9392C32.4497 33.9031 32.4027 33.8513 32.3723 33.7899L31.2166 31.3995C31.1786 31.3127 31.1756 31.2146 31.2084 31.1257C31.2411 31.0368 31.307 30.964 31.3922 30.9226C31.4774 30.8812 31.5754 30.8744 31.6655 30.9036C31.7556 30.9328 31.8309 30.9957 31.8757 31.0793L33.0314 33.4696C33.0731 33.5578 33.0785 33.6588 33.0464 33.7508C33.0142 33.8429 32.9472 33.9186 32.8597 33.9616C32.81 33.9835 32.7562 33.9946 32.7019 33.9941Z" fill="#FF6A68"/>
<path d="M35.0086 33.9942C34.9401 33.9944 34.8729 33.9753 34.8146 33.9392C34.7564 33.9032 34.7094 33.8514 34.6791 33.79L33.528 31.3996C33.5066 31.3567 33.494 31.31 33.4909 31.2621C33.4878 31.2143 33.4941 31.1664 33.5097 31.121C33.5252 31.0757 33.5496 31.0339 33.5814 30.9981C33.6133 30.9622 33.6519 30.9331 33.6951 30.9123C33.7383 30.8908 33.7854 30.8781 33.8336 30.875C33.8817 30.8718 33.9301 30.8781 33.9758 30.8936C34.0215 30.9091 34.0637 30.9335 34.0999 30.9654C34.1362 30.9973 34.1658 31.036 34.1871 31.0794L35.3382 33.4697C35.3802 33.5573 35.3863 33.6579 35.355 33.7498C35.3238 33.8418 35.2577 33.9179 35.1711 33.9617C35.1199 33.9841 35.0645 33.9952 35.0086 33.9942Z" fill="#FF6A68"/>
<path d="M39.122 17.5743L32.582 6.39282L16.7776 11.1782L8.29749 21.45C9.24499 22.0918 10.0728 22.8945 10.7436 23.8218C10.7436 23.8218 11.6719 18.549 21.8833 18.4191C28.5949 18.3309 30.8182 14.1256 31.6955 10.7234C31.8811 14.6919 33.812 18.7857 36.1421 20.6841C36.7748 21.2583 37.5498 21.6524 38.3866 21.8255C39.2233 21.9986 40.0911 21.9442 40.8997 21.6681L39.122 17.5743Z" fill="#420E2F"/>
</svg>
