<svg width="89" height="81" viewBox="0 0 89 81" fill="none" xmlns="http://www.w3.org/2000/svg">
<path d="M87.5797 49.6165C86.6193 47.9925 84.8628 46.9922 82.9614 46.9866C82.0334 46.9866 81.1218 47.229 80.3187 47.6899L69.1501 54.0764L69.1495 54.0758C67.8903 52.5141 65.9821 51.6035 63.9628 51.6004H40.3453L33.7808 48.8995C30.0959 47.4853 26.039 47.3314 22.2563 48.4637L18.8034 49.4345V42.6819C18.8034 42.0031 18.5306 41.3519 18.0459 40.8714C17.5606 40.3917 16.9028 40.1216 16.217 40.1216H2.77483C2.08654 40.1216 1.42617 40.3936 0.940874 40.8765C0.45558 41.36 0.184716 42.0143 0.188516 42.6963V78.4398C0.192322 79.1174 0.46573 79.7667 0.950391 80.2458C1.43442 80.7256 2.08971 80.9962 2.77477 81H16.2169C16.9021 80.9962 17.5574 80.7256 18.0413 80.2458C18.526 79.7667 18.7994 79.1173 18.8032 78.4398V69.7751L23.9187 68.5933C28.3174 67.5735 32.9248 67.8975 37.1339 69.5214L46.5263 73.1221V73.1228C48.1579 73.7507 49.8923 74.0748 51.6419 74.0792C54.1374 74.0842 56.5893 73.4342 58.7468 72.1939L85.7454 56.8048V56.8054C86.9419 56.0839 87.8046 54.9264 88.1471 53.5826C88.4903 52.2382 88.2861 50.8139 87.5788 49.617L87.5797 49.6165ZM2.84694 78.3123L2.77589 42.7664H16.1471V78.383L2.84694 78.3123ZM84.3123 54.5261L57.3704 69.9993C54.3464 71.7457 50.6816 72.0257 47.4236 70.7592L38.0165 67.144C33.3126 65.3348 28.1674 64.9718 23.2522 66.1028L18.7337 67.144V52.1913L22.9255 50.9956C26.1912 50.0116 29.6967 50.1504 32.8724 51.3894L39.8352 54.2027H63.9919C65.0621 54.2027 66.0885 54.6234 66.8452 55.3726C67.602 56.1218 68.0277 57.1378 68.0277 58.1972C68.0315 58.5319 67.8995 58.854 67.6623 59.092C67.4244 59.3294 67.1009 59.4632 66.7627 59.4632H45.448V62.122H66.7627C67.8056 62.1182 68.8047 61.7063 69.5419 60.9766C70.279 60.2468 70.6952 59.2579 70.699 58.2255C70.6875 57.6094 70.5873 56.9984 70.4002 56.4113L81.6685 49.9689L81.6691 49.9683C82.2851 49.6361 83.007 49.552 83.6838 49.7322C84.3613 49.913 84.9424 50.3451 85.3065 50.9392C85.651 51.5464 85.7405 52.2635 85.5539 52.9348C85.3674 53.6068 84.9215 54.1782 84.3118 54.5261L84.3123 54.5261Z" fill="url(#paint0_linear_17_870)"/>
<path d="M62.1579 38.0672C66.3676 38.0672 70.4047 36.4118 73.3818 33.4654C76.3582 30.5183 78.0304 26.522 78.0304 22.3548C78.0304 18.1875 76.3582 14.1912 73.3818 11.2447C70.4047 8.29832 66.3676 6.64232 62.1579 6.64232C57.9483 6.64232 53.9112 8.29832 50.9348 11.2447C47.9583 14.1912 46.2861 18.1877 46.2861 22.3548C46.2899 26.5207 47.9634 30.5153 50.9392 33.4611C53.9149 36.4068 57.9496 38.0635 62.1579 38.0672ZM62.1579 9.2878C65.6641 9.2878 69.0262 10.6662 71.5041 13.121C73.9826 15.5751 75.3744 18.904 75.3731 22.3742C75.3718 25.8444 73.9781 29.172 71.4978 31.6249C69.0175 34.0777 65.6547 35.4542 62.1485 35.4518C58.643 35.4493 55.2822 34.0677 52.8056 31.6117C50.329 29.1556 48.9391 25.8256 48.943 22.3554C48.9468 18.8884 50.3411 15.5645 52.8189 13.1142C55.2968 10.6639 58.6557 9.28796 62.1581 9.28796L62.1579 9.2878Z" fill="url(#paint1_linear_17_870)"/>
<path d="M43.7126 33.4263C44.6927 34.1209 45.4241 35.1061 45.8015 36.2396C46.349 37.917 47.4198 39.3788 48.8598 40.4151C50.2998 41.4518 52.0355 42.0089 53.8162 42.007C55.031 42.0007 56.2166 42.3806 57.198 43.0902C58.6386 44.1408 60.3813 44.7078 62.1714 44.7078C63.9611 44.7078 65.7036 44.1407 67.1449 43.0902C68.1262 42.3806 69.3113 42.0007 70.5266 42.007C72.2997 42.0001 74.0258 41.4386 75.4569 40.4031C76.8886 39.367 77.9531 37.91 78.4981 36.2397C78.8851 35.1113 79.6146 34.1285 80.587 33.4264C82.0302 32.3972 83.1062 30.9403 83.6573 29.2667C84.2092 27.5926 84.2092 25.7884 83.6567 24.1142C83.2735 22.9682 83.2735 21.7298 83.6567 20.5837C84.2092 18.9096 84.2092 17.1054 83.6573 15.4312C83.1061 13.7577 82.0301 12.3007 80.587 11.2715C79.6146 10.5694 78.8851 9.58674 78.4981 8.4582C77.9513 6.78082 76.8798 5.31903 75.4398 4.28276C73.9998 3.24598 72.2648 2.68896 70.4841 2.69086C69.2686 2.69714 68.0837 2.31722 67.1023 1.60761C65.6585 0.562662 63.9166 0 62.1289 0C60.3405 0 58.5987 0.562662 57.1554 1.60761C56.1741 2.31722 54.9884 2.69713 53.773 2.69086C51.993 2.68898 50.2574 3.24598 48.8173 4.28276C47.3773 5.31891 46.3064 6.78082 45.759 8.4582C45.3815 9.59169 44.6501 10.577 43.6701 11.2715C42.2294 12.3026 41.1566 13.7601 40.6074 15.4344C40.0587 17.1079 40.0612 18.9115 40.615 20.5837C40.9842 21.7323 40.9842 22.9656 40.615 24.1142C40.0657 25.7909 40.0695 27.5976 40.6264 29.2717C41.1834 30.9459 42.2644 32.4008 43.7126 33.4263ZM43.1867 19.7679C42.7991 18.6244 42.7928 17.3879 43.169 16.2407C43.5451 15.0934 44.2835 14.0955 45.2757 13.3954C46.7278 12.3523 47.7993 10.8716 48.3308 9.1754C48.7184 8.04066 49.4562 7.05529 50.4407 6.35887C51.4252 5.66183 52.6057 5.28945 53.8161 5.29321C55.5929 5.2976 57.3254 4.74059 58.761 3.70381C59.748 2.99986 60.9337 2.62119 62.1497 2.62119C63.3664 2.62119 64.5521 2.99986 65.5391 3.70381C66.9753 4.73871 68.7072 5.29571 70.484 5.29321C71.7058 5.28065 72.8997 5.65868 73.8874 6.3708C74.8757 7.08292 75.6052 8.09078 75.9686 9.24569C76.506 10.9393 77.5768 12.4181 79.0237 13.4657C80.0171 14.1533 80.7618 15.1368 81.1508 16.2733C81.539 17.4093 81.5511 18.6389 81.1838 19.7818C80.6198 21.4717 80.6198 23.2965 81.1838 24.9864C81.5701 26.1312 81.5739 27.3689 81.1958 28.5162C80.8171 29.6635 80.0755 30.6601 79.0809 31.3585C77.6333 32.4066 76.5631 33.8855 76.0259 35.5785C75.6624 36.7333 74.9322 37.7418 73.9446 38.454C72.9562 39.1661 71.7629 39.5435 70.5406 39.5316C68.7605 39.4914 67.0134 40.0139 65.5531 41.0224C64.5667 41.7282 63.3811 42.1081 62.1644 42.1081C60.947 42.1081 59.7614 41.7282 58.775 41.0224C57.3394 39.9856 55.6069 39.4286 53.8301 39.433C52.6115 39.4317 51.424 39.0493 50.4388 38.3391C49.453 37.6288 48.7203 36.6278 48.3453 35.4799C47.8131 33.7837 46.7416 32.3036 45.2903 31.26C44.3159 30.5679 43.5877 29.5884 43.2096 28.4611C42.8322 27.3345 42.8239 26.1182 43.1868 24.9866C43.7507 23.2967 43.7507 21.4719 43.1868 19.782L43.1867 19.7679Z" fill="url(#paint2_linear_17_870)"/>
<path d="M54.6294 27.9492L67.7919 14.9193L69.6709 16.7793L56.5083 29.8092L54.6294 27.9492Z" fill="url(#paint3_linear_17_870)"/>
<path d="M54.626 20.4995C55.3796 21.2456 56.4028 21.6607 57.468 21.6531C58.5343 21.6669 59.5608 21.2506 60.3099 20.4995C61.0521 19.756 61.4658 18.7513 61.4613 17.7057C61.4562 16.6607 61.0337 15.6597 60.2852 14.922C59.5373 14.1847 58.5241 13.7709 57.4679 13.7709C56.4123 13.7709 55.3993 14.1847 54.6506 14.922C53.9027 15.6598 53.4796 16.6607 53.4751 17.7057C53.4707 18.7513 53.8844 19.756 54.626 20.4995ZM56.5165 16.7718C57.036 16.2644 57.8721 16.2644 58.3917 16.7718C58.8712 17.3056 58.8712 18.1094 58.3917 18.6432C58.1493 18.9233 57.7992 19.091 57.4262 19.1042C57.0538 19.118 56.6922 18.9767 56.4296 18.7142C56.1663 18.4523 56.0268 18.0931 56.0432 17.7245C56.0597 17.3553 56.231 17.0105 56.5165 16.7718Z" fill="url(#paint4_linear_17_870)"/>
<path d="M64.0339 24.226C63.2771 24.9708 62.8521 25.9838 62.8521 27.0393C62.8521 28.0956 63.2771 29.1085 64.0339 29.8526C65.0495 30.858 66.5294 31.2505 67.9162 30.8825C69.3029 30.5145 70.3864 29.4426 70.7581 28.0692C71.1299 26.6964 70.7334 25.2314 69.7178 24.226C68.9553 23.4976 67.9364 23.09 66.8758 23.09C65.8158 23.09 64.797 23.4976 64.0339 24.226ZM67.7996 27.9399C67.2635 28.4065 66.4604 28.4065 65.9237 27.9399C65.5412 27.5637 65.4276 26.9954 65.637 26.5031C65.8463 26.0114 66.3367 25.6949 66.8759 25.703C67.228 25.698 67.5667 25.8356 67.8141 26.083C68.3229 26.6017 68.3166 27.4287 67.7996 27.9399Z" fill="url(#paint5_linear_17_870)"/>
<defs>
<linearGradient id="paint0_linear_17_870" x1="44.2492" y1="40.1216" x2="44.2492" y2="81" gradientUnits="userSpaceOnUse">
<stop stop-color="#D2D1CE"/>
<stop offset="1" stop-color="#217A7E"/>
</linearGradient>
<linearGradient id="paint1_linear_17_870" x1="62.1583" y1="6.64232" x2="62.1583" y2="38.0672" gradientUnits="userSpaceOnUse">
<stop stop-color="#D2D1CE"/>
<stop offset="1" stop-color="#217A7E"/>
</linearGradient>
<linearGradient id="paint2_linear_17_870" x1="62.1345" y1="0" x2="62.1345" y2="44.7078" gradientUnits="userSpaceOnUse">
<stop stop-color="#D2D1CE"/>
<stop offset="1" stop-color="#217A7E"/>
</linearGradient>
<linearGradient id="paint3_linear_17_870" x1="62.1501" y1="14.9193" x2="62.1501" y2="29.8092" gradientUnits="userSpaceOnUse">
<stop stop-color="#D2D1CE"/>
<stop offset="1" stop-color="#217A7E"/>
</linearGradient>
<linearGradient id="paint4_linear_17_870" x1="57.4682" y1="13.7709" x2="57.4682" y2="21.6535" gradientUnits="userSpaceOnUse">
<stop stop-color="#D2D1CE"/>
<stop offset="1" stop-color="#217A7E"/>
</linearGradient>
<linearGradient id="paint5_linear_17_870" x1="66.8736" y1="23.09" x2="66.8736" y2="31.0182" gradientUnits="userSpaceOnUse">
<stop stop-color="#D2D1CE"/>
<stop offset="1" stop-color="#217A7E"/>
</linearGradient>
</defs>
</svg>
