<svg width="83" height="79" viewBox="0 0 83 79" fill="none" xmlns="http://www.w3.org/2000/svg">
<path d="M80.4063 44.8749L75.442 40.141C74.6939 39.4276 74.0713 38.6038 73.5981 37.7014L68.8728 28.6894C68.3204 27.6359 66.848 27.408 65.9746 28.2409C65.0452 29.1272 63.6849 29.4634 62.4211 29.119L56.8522 27.6017C54.7372 27.0255 52.5422 28.2344 52.0088 30.2693C51.61 31.7905 52.257 33.3865 53.6251 34.2563L56.1921 35.8882C58.7764 37.5311 59.1385 41.0179 56.9422 43.1122L56.0666 43.9472C55.1436 44.8274 54.625 46.0212 54.625 47.266V48.9798C54.625 50.6812 54.1401 52.3505 53.2222 53.8094L47.4707 62.9504C45.8022 65.6022 42.7969 67.2248 39.5538 67.2248C37.0043 67.2248 34.9375 65.254 34.9375 62.8227V57.9352C34.9375 54.0968 32.4869 50.6451 28.7496 49.2196L25.8878 48.128C21.5927 46.4896 19.0733 42.2204 19.8338 37.8691L19.8646 37.693C20.0676 36.5313 20.4981 35.4165 21.1335 34.4066L21.5247 33.7849C23.665 30.3832 27.8168 28.6318 31.8961 29.4098L37.0492 30.3926C39.5634 30.8721 42.0426 29.4306 42.7469 27.0796L43.6591 24.0353C44.3097 21.8636 43.2461 19.558 41.1277 18.5479L38.2188 17.1609L37.8207 17.5406C35.9746 19.301 33.4708 20.2899 30.8601 20.2899H30.0685C28.9842 20.2899 27.9417 20.7032 27.1749 21.4343C25.9347 22.617 24.0356 22.9144 22.4669 22.1665C20.3439 21.1542 19.5739 18.6327 20.7951 16.6919L26.9722 6.87449C27.5885 5.89493 28.0096 4.82048 28.2198 3.70518M80.4063 44.8749C80.7149 42.981 80.875 41.0403 80.875 39.0639C80.875 18.3268 63.2462 1.51598 41.5 1.51598C36.8399 1.51598 32.3688 2.28798 28.2198 3.70518M80.4063 44.8749C77.4773 62.8527 61.1736 76.6118 41.5 76.6118C19.7538 76.6118 2.125 59.8011 2.125 39.0639C2.125 22.7707 13.0078 8.90127 28.2198 3.70518" stroke="url(#paint0_linear_997_18)" stroke-width="3" stroke-linecap="round" stroke-linejoin="round"/>
<defs>
<linearGradient id="paint0_linear_997_18" x1="41.5" y1="1.51598" x2="41.5" y2="76.6118" gradientUnits="userSpaceOnUse">
<stop stop-color="#D2D1CE"/>
<stop offset="1" stop-color="#217A7E"/>
</linearGradient>
</defs>
</svg>
