<svg width="50" height="74" viewBox="0 0 50 74" fill="none" xmlns="http://www.w3.org/2000/svg">
<path d="M49.9872 55.2925C49.9872 55.2516 49.9775 55.2112 49.9775 55.1702C49.9572 55.1048 49.9377 55.048 49.9175 54.9911C49.9077 54.9422 49.8875 54.9012 49.8672 54.8609C49.847 54.804 49.8072 54.7551 49.7772 54.6977C49.757 54.6652 49.7472 54.6322 49.727 54.5998C49.6872 54.5509 45.9061 49.2598 44.9957 39.3789C44.1354 29.9057 37.0639 23.0894 34.3726 20.8066L38.8542 12.0425C39.104 11.537 39.044 10.9666 38.6644 10.51C38.2946 10.0522 37.6743 9.78317 37.0038 9.78317H35.0034V1.63041C35.0034 0.733574 34.1033 0 33.003 0C31.9027 0 31.0027 0.733618 31.0027 1.63041V9.78317H18.9988V1.63041C18.9988 0.733574 18.0987 0 16.9984 0C15.8981 0 14.9981 0.733618 14.9981 1.63041V9.78317H12.9977C12.3272 9.78317 11.7076 10.0522 11.3371 10.5088C10.9568 10.9655 10.8968 11.5359 11.1473 12.0414L15.6289 20.8055C12.9385 23.0883 5.86621 29.904 5.00579 39.3778C4.09524 49.2588 0.314145 54.5492 0.284137 54.5987C0.254134 54.6311 0.244365 54.6641 0.224131 54.6965C0.194128 54.7454 0.164123 54.7943 0.134121 54.8512C0.113886 54.9001 0.0943493 54.949 0.0741152 54.9979C0.053881 55.0548 0.0441129 55.1037 0.0343442 55.1526C0.01411 55.2095 0.0141103 55.2584 0.00434151 55.3158C0.00434151 55.3647 -0.00542689 55.4136 0.00434151 55.4705C0.00434151 55.5194 0.0043416 55.5763 0.0141098 55.6252C0.0238782 55.6741 0.0343437 55.723 0.0441125 55.7799C0.0538809 55.8288 0.0741154 55.8777 0.0943495 55.9266C0.114584 55.9755 0.134121 56.0244 0.154355 56.0733C0.184358 56.1222 0.21436 56.1711 0.244363 56.22C0.274366 56.261 0.304369 56.3099 0.344139 56.3503C0.383911 56.3912 0.42438 56.4401 0.46415 56.4805C0.503922 56.5214 0.54439 56.5539 0.593929 56.5948C0.644166 56.6357 0.693702 56.6682 0.753708 56.7091C0.783711 56.7256 0.813714 56.758 0.853484 56.7745C7.50496 60.5495 15.2073 62.5791 22.9989 62.8726L22.9996 70.1143H14.9972C13.8968 70.1143 12.9968 70.8479 12.9968 71.7447C12.9968 72.6416 13.8969 73.3751 14.9972 73.3751H35.0027C36.103 73.3751 37.0031 72.6415 37.0031 71.7447C37.0031 70.8479 36.103 70.1143 35.0027 70.1143H27.0003V62.8748C34.7926 62.5814 42.4942 60.5511 49.1457 56.7767C49.1959 56.7522 49.2357 56.7113 49.2859 56.6789C49.3159 56.6624 49.3557 56.6379 49.3857 56.6135C49.4555 56.5646 49.5057 56.5077 49.5657 56.4503C49.5859 56.4258 49.6159 56.4014 49.6355 56.3689C49.6857 56.3121 49.7353 56.2467 49.7757 56.1813C49.796 56.1568 49.8155 56.1244 49.826 56.0999C49.8657 56.0345 49.8957 55.9612 49.916 55.8964C49.9257 55.8639 49.9362 55.831 49.946 55.7985C49.9662 55.7331 49.976 55.6683 49.9857 55.595C49.9955 55.5625 49.9955 55.5216 49.9955 55.4892C50.006 55.4226 49.9962 55.3572 49.9857 55.2924L49.9872 55.2925ZM34.0028 13.0452L30.6719 19.5675L19.3288 19.567L15.9984 13.0452L34.0028 13.0452ZM4.59476 54.8601C5.9051 52.545 8.27595 47.4165 8.98632 39.6144C9.78663 30.8582 16.8387 24.4663 18.8188 22.8285H31.1924C33.1733 24.4589 40.2051 30.8266 41.0151 39.6144C41.7254 47.4169 44.0956 52.5447 45.4067 54.8601C32.9919 61.2357 17.0071 61.2357 4.59476 54.8601Z" fill="url(#paint0_linear_17_880)"/>
<defs>
<linearGradient id="paint0_linear_17_880" x1="25" y1="0" x2="25" y2="73.3751" gradientUnits="userSpaceOnUse">
<stop stop-color="#D2D1CE"/>
<stop offset="1" stop-color="#217A7E"/>
</linearGradient>
</defs>
</svg>
